<?xml version="1.0" standalone="no"?>
<svg xmlns="http://www.w3.org/2000/svg" viewBox="0 0 112 71" width="112" height="71"><g fill="#1EAE98" color="#1EAE98" transform="translate(33.542 0) scale(0.44) "><g transform="translate(-255.999, -360.919)"><svg width="100.0" height="87.836" x="255.999" y="360.919" viewBox="255.999 360.919 100 87.836"><path d="M343.091,439.195l-3.274-30.269c-0.075-1.247-0.101-1.352-0.44-2.3l-7.446-18.707c1.361,0.055,2.196-0.92,2.196-5.211  c-0.342-2.54-1.993-9.056-5.729-11.053c0,0-9.634-6.344-18.328-6.344c-9.634,0-19.268,5.874-19.268,5.874  c-1.29,1.355-2.427,2.543-3.292,3.8l-22.057,25.457c-0.934,1.283-1.104,2.888-0.597,4.274c0,0.001,0,0.002,0,0.003l7.644,33.31  c-0.188-0.004-0.372-0.01-0.568-0.01c-5.154,0-10.933,2.83-10.933,4.582c0,1.752,5.779,1.762,10.934,1.762  c2.128,0,3.81-0.245,5.06-0.652c0.019-0.003,0.038-0.001,0.057-0.005c0.476-0.092,0.901-0.298,1.268-0.58  c0.894-0.536,1.348-1.206,1.348-1.935c0-0.129-0.018-0.255-0.046-0.38c0.056-0.409,0.058-0.835-0.026-1.269l-4.876-35.407  l19.731-18.087l0,0c3.374-2.203,12.301-7.747,15.621-6.992c1.355,0.308,4.917,1.93,8.427,3.623l15.173,26.82  c0.05,0.088,0.083,0.184,0.097,0.284l4.359,30.247c0.083,0.659,0.177,1.235,0.357,1.686c0.235,1.103,1.305,1.982,3.81,2.168  c3.017,0.223,7.608-0.462,8.551-1.523C352.029,441.027,346.108,439.418,343.091,439.195z"></path><g><path d="M333.295,388.642l6.187,15.545c3.922-0.77,6.882-4.224,6.882-8.372c0-4.714-3.821-8.535-8.535-8.535   c-1.503,0-2.911,0.393-4.136,1.077C333.569,388.461,333.443,388.565,333.295,388.642z"></path></g></svg></g></g><path fill="#233E8B" fill-rule="nonzero" d="M10.54 11.77L10.54 11.77Q10.54 12.90 10.54 13.73Q10.55 14.55 10.56 15.16Q10.58 15.76 10.61 16.17Q10.64 16.57 10.68 16.86Q10.72 17.16 10.78 17.38Q10.83 17.60 10.90 17.81L10.90 17.81Q10.72 17.91 10.51 17.98Q10.30 18.06 10.07 18.11Q9.84 18.16 9.62 18.19Q9.39 18.21 9.19 18.21L9.19 18.21Q8.58 18.21 8.18 17.96Q7.78 17.71 7.78 17.04L7.78 17.04L7.78 12.14L2.45 3.32L0.39 4.22L0 3.39Q0.28 3.13 0.76 2.75Q1.23 2.38 1.78 2.04Q2.32 1.70 2.86 1.46Q3.40 1.22 3.80 1.22L3.80 1.22Q4.07 1.22 4.33 1.38Q4.59 1.55 4.85 1.95L4.85 1.95L9.82 10.13L9.87 10.13Q10.29 9.39 10.71 8.65Q11.13 7.91 11.47 7.17Q11.81 6.42 12.02 5.67Q12.23 4.91 12.23 4.15L12.23 4.15Q12.23 3.64 12.11 3.15Q11.98 2.65 11.77 2.13L11.77 2.13L13.61 1.35Q13.77 1.27 13.90 1.24Q14.03 1.22 14.16 1.22L14.16 1.22Q14.61 1.22 14.83 1.59Q15.05 1.96 15.05 2.57L15.05 2.57Q15.05 3.41 14.68 4.44Q14.32 5.47 13.70 6.64Q13.08 7.82 12.26 9.11Q11.45 10.41 10.54 11.77ZM29.50 12.02L29.50 12.02Q29.50 13.45 29.00 14.63Q28.50 15.80 27.63 16.63Q26.75 17.46 25.58 17.91Q24.41 18.36 23.07 18.36L23.07 18.36Q21.71 18.36 20.54 17.91Q19.36 17.45 18.49 16.62Q17.63 15.79 17.12 14.62Q16.62 13.45 16.62 12.02L16.62 12.02Q16.62 10.58 17.12 9.40Q17.63 8.23 18.49 7.39Q19.36 6.55 20.54 6.09Q21.71 5.64 23.07 5.64L23.07 5.64Q24.42 5.64 25.59 6.09Q26.77 6.55 27.63 7.39Q28.50 8.23 29.00 9.40Q29.50 10.58 29.50 12.02ZM19.51 12L19.51 12Q19.51 13.00 19.66 13.92Q19.82 14.85 20.22 15.56Q20.63 16.27 21.31 16.69Q22.00 17.11 23.07 17.11L23.07 17.11Q24.14 17.11 24.83 16.69Q25.51 16.27 25.90 15.56Q26.30 14.85 26.45 13.92Q26.60 13.00 26.60 12L26.60 12Q26.60 11.00 26.45 10.08Q26.30 9.15 25.90 8.44Q25.51 7.73 24.83 7.31Q24.14 6.89 23.07 6.89L23.07 6.89Q22.00 6.89 21.31 7.31Q20.63 7.73 20.22 8.44Q19.82 9.15 19.66 10.08Q19.51 11.00 19.51 12ZM35.29 10.13L35.29 10.13Q35.29 11.70 35.96 12.58Q36.64 13.46 38.06 13.46L38.06 13.46Q39.48 13.46 40.17 12.58Q40.85 11.70 40.85 10.13L40.85 10.13Q40.85 8.55 40.17 7.69Q39.49 6.82 38.06 6.82L38.06 6.82Q36.64 6.82 35.96 7.69Q35.29 8.55 35.29 10.13ZM33.63 19.58L33.63 19.58Q34.07 20.24 34.58 20.75Q35.09 21.26 35.71 21.61Q36.33 21.96 37.07 22.14Q37.82 22.32 38.70 22.32L38.70 22.32Q39.15 22.32 39.73 22.25Q40.31 22.18 40.83 21.98Q41.34 21.79 41.70 21.43Q42.05 21.07 42.05 20.50L42.05 20.50Q42.05 20.04 41.65 19.77Q41.26 19.50 40.62 19.32Q39.98 19.15 39.16 19.04Q38.34 18.94 37.49 18.81Q36.63 18.68 35.81 18.49Q34.99 18.30 34.35 17.98Q33.71 17.66 33.32 17.16Q32.93 16.65 32.93 15.89L32.93 15.89Q32.93 15.42 33.11 15.10Q33.28 14.78 33.55 14.55Q33.82 14.33 34.14 14.17Q34.45 14.00 34.73 13.85L34.73 13.85Q33.70 13.27 33.11 12.32Q32.52 11.38 32.52 10.13L32.52 10.13Q32.52 9.08 32.94 8.25Q33.36 7.42 34.11 6.84Q34.86 6.26 35.87 5.95Q36.88 5.64 38.06 5.64L38.06 5.64Q39.55 5.64 40.76 6.13Q41.96 6.63 42.70 7.54L42.70 7.54L43.39 6.67Q43.78 6.20 44.09 5.90Q44.40 5.60 44.68 5.44Q44.96 5.27 45.24 5.21Q45.52 5.16 45.84 5.16L45.84 5.16Q46.00 5.16 46.19 5.20Q46.38 5.24 46.55 5.33Q46.71 5.43 46.83 5.57Q46.95 5.72 46.95 5.93L46.95 5.93L46.95 7.51Q46.14 7.51 45.57 7.52Q45.01 7.54 44.60 7.62Q44.19 7.71 43.87 7.90Q43.55 8.09 43.23 8.43L43.23 8.43Q43.41 8.82 43.51 9.23Q43.61 9.64 43.61 10.15L43.61 10.15Q43.61 11.19 43.18 12.02Q42.76 12.84 42.02 13.43Q41.27 14.02 40.26 14.33Q39.25 14.64 38.06 14.64L38.06 14.64Q37.43 14.64 36.86 14.55Q36.29 14.47 35.77 14.31L35.77 14.31Q35.32 14.54 35.06 14.81Q34.80 15.07 34.80 15.34L34.80 15.34Q34.80 15.81 35.22 16.06Q35.64 16.31 36.32 16.45Q37.01 16.59 37.89 16.66Q38.77 16.73 39.67 16.84Q40.58 16.95 41.46 17.12Q42.34 17.30 43.03 17.65Q43.71 18.01 44.13 18.59Q44.54 19.16 44.54 20.06L44.54 20.06Q44.54 21 44.02 21.70Q43.49 22.39 42.62 22.85Q41.75 23.31 40.64 23.54Q39.53 23.77 38.36 23.77L38.36 23.77Q37.54 23.77 36.71 23.66Q35.88 23.55 35.11 23.37Q34.34 23.18 33.67 22.92Q33 22.65 32.51 22.34Q32.02 22.03 31.73 21.68Q31.44 21.33 31.44 20.95L31.44 20.95Q31.44 20.78 31.56 20.63Q31.69 20.47 31.95 20.31Q32.21 20.16 32.63 19.97Q33.05 19.79 33.63 19.58ZM56.02 17.09L56.02 16.97Q56.02 16.97 55.86 17.07Q55.70 17.17 55.42 17.32Q55.15 17.47 54.78 17.65Q54.41 17.84 53.97 17.99Q53.53 18.15 53.06 18.26Q52.58 18.36 52.10 18.36L52.10 18.36Q51.34 18.36 50.65 18.16Q49.96 17.95 49.44 17.52Q48.91 17.09 48.60 16.43Q48.29 15.77 48.29 14.86L48.29 14.86Q48.29 13.85 48.74 13.15Q49.20 12.45 50.00 12.01Q50.80 11.57 51.91 11.37Q53.03 11.18 54.36 11.18L54.36 11.18L56.02 11.18L56.02 10.30Q56.02 9.62 55.96 8.99Q55.91 8.37 55.72 7.90Q55.52 7.43 55.15 7.15Q54.79 6.87 54.16 6.87L54.16 6.87Q53.57 6.87 52.97 7.08Q52.37 7.30 51.80 7.63Q51.22 7.96 50.70 8.35Q50.17 8.74 49.73 9.09L49.73 9.09L48.77 7.80Q48.60 7.59 48.60 7.37L48.60 7.37Q48.60 6.98 49.08 6.67Q49.57 6.35 50.30 6.12Q51.04 5.89 51.88 5.77Q52.72 5.64 53.45 5.64L53.45 5.64Q54.53 5.64 55.49 5.89Q56.45 6.15 57.17 6.71Q57.89 7.27 58.31 8.15Q58.73 9.04 58.73 10.30L58.73 10.30L58.73 16.83L60.77 16.83L60.77 17.71Q60.57 17.81 60.23 17.91Q59.88 18 59.46 18.07Q59.04 18.14 58.58 18.18Q58.11 18.21 57.69 18.21L57.69 18.21Q57.41 18.21 57.12 18.18Q56.82 18.14 56.58 18.02Q56.34 17.89 56.19 17.68Q56.03 17.46 56.02 17.09L56.02 17.09ZM52.92 16.63L52.92 16.63Q53.33 16.63 53.87 16.52Q54.40 16.41 54.88 16.28L54.88 16.28Q55.44 16.13 56.02 15.91L56.02 15.91L56.02 12.62L54.05 12.62Q53.60 12.62 53.07 12.70Q52.54 12.79 52.07 13.01Q51.61 13.24 51.29 13.65Q50.98 14.06 50.98 14.73L50.98 14.73Q50.98 15.15 51.11 15.50Q51.23 15.84 51.48 16.10Q51.73 16.35 52.09 16.49Q52.45 16.63 52.92 16.63ZM73.50 1.83L73.50 16.35L75.62 16.35Q77.19 16.35 78.77 16.14Q80.36 15.93 81.88 15.43L81.88 15.43Q81.88 15.45 81.91 15.56Q81.95 15.67 82.00 15.86Q82.04 16.04 82.08 16.28Q82.13 16.52 82.13 16.76L82.13 16.76Q82.13 17.27 81.86 17.55Q81.60 17.84 80.98 17.96Q80.37 18.09 79.35 18.12Q78.34 18.14 76.84 18.14L76.84 18.14Q76.04 18.14 75.24 18.13Q74.44 18.12 73.74 18.10Q73.04 18.08 72.50 18.05Q71.95 18.02 71.66 18L71.66 18Q71.11 17.95 70.93 17.72Q70.75 17.50 70.75 16.99L70.75 16.99L70.75 2.68L68.48 2.68L68.48 1.76Q68.66 1.66 69.01 1.57Q69.36 1.48 69.83 1.39Q70.29 1.31 70.84 1.27Q71.39 1.22 71.96 1.22L71.96 1.22Q72.42 1.22 72.71 1.23Q73.01 1.24 73.18 1.29Q73.36 1.35 73.43 1.48Q73.50 1.61 73.50 1.83L73.50 1.83ZM91.50 17.09L91.50 16.97Q91.50 16.97 91.34 17.07Q91.18 17.17 90.91 17.32Q90.63 17.47 90.26 17.65Q89.89 17.84 89.46 17.99Q89.02 18.15 88.54 18.26Q88.07 18.36 87.59 18.36L87.59 18.36Q86.82 18.36 86.13 18.16Q85.44 17.95 84.92 17.52Q84.40 17.09 84.09 16.43Q83.78 15.77 83.78 14.86L83.78 14.86Q83.78 13.85 84.23 13.15Q84.68 12.45 85.48 12.01Q86.29 11.57 87.40 11.37Q88.51 11.18 89.85 11.18L89.85 11.18L91.50 11.18L91.50 10.30Q91.50 9.62 91.45 8.99Q91.39 8.37 91.20 7.90Q91.01 7.43 90.64 7.15Q90.27 6.87 89.65 6.87L89.65 6.87Q89.05 6.87 88.45 7.08Q87.86 7.30 87.28 7.63Q86.71 7.96 86.18 8.35Q85.65 8.74 85.22 9.09L85.22 9.09L84.26 7.80Q84.08 7.59 84.08 7.37L84.08 7.37Q84.08 6.98 84.57 6.67Q85.05 6.35 85.79 6.12Q86.52 5.89 87.36 5.77Q88.21 5.64 88.93 5.64L88.93 5.64Q90.01 5.64 90.97 5.89Q91.93 6.15 92.65 6.71Q93.38 7.27 93.80 8.15Q94.22 9.04 94.22 10.30L94.22 10.30L94.22 16.83L96.26 16.83L96.26 17.71Q96.06 17.81 95.71 17.91Q95.37 18 94.95 18.07Q94.52 18.14 94.06 18.18Q93.60 18.21 93.18 18.21L93.18 18.21Q92.89 18.21 92.60 18.18Q92.31 18.14 92.07 18.02Q91.83 17.89 91.67 17.68Q91.51 17.46 91.50 17.09L91.50 17.09ZM88.41 16.63L88.41 16.63Q88.82 16.63 89.35 16.52Q89.88 16.41 90.36 16.28L90.36 16.28Q90.93 16.13 91.50 15.91L91.50 15.91L91.50 12.62L89.53 12.62Q89.09 12.62 88.55 12.70Q88.02 12.79 87.56 13.01Q87.09 13.24 86.78 13.65Q86.46 14.06 86.46 14.73L86.46 14.73Q86.46 15.15 86.59 15.50Q86.72 15.84 86.96 16.10Q87.21 16.35 87.57 16.49Q87.94 16.63 88.41 16.63ZM105.59 7.05L105.59 7.05Q104.60 7.05 103.64 7.39Q102.68 7.73 101.81 8.20L101.81 8.20L101.81 16.68Q101.81 16.69 102.05 16.75Q102.28 16.80 102.66 16.88Q103.03 16.95 103.49 17.00Q103.96 17.06 104.43 17.06L104.43 17.06Q105.38 17.06 106.08 16.68Q106.78 16.30 107.24 15.58Q107.71 14.86 107.94 13.83Q108.18 12.80 108.18 11.50L108.18 11.50Q108.18 10.49 108.04 9.67Q107.91 8.85 107.60 8.27Q107.29 7.69 106.79 7.37Q106.30 7.05 105.59 7.05ZM101.81 0.62L101.81 7.08Q102.25 6.80 102.75 6.53Q103.25 6.27 103.79 6.07Q104.33 5.87 104.89 5.75Q105.45 5.64 105.98 5.64L105.98 5.64Q107.32 5.64 108.29 6.11Q109.25 6.59 109.88 7.41Q110.50 8.23 110.79 9.33Q111.08 10.43 111.08 11.68L111.08 11.68Q111.08 13.13 110.60 14.35Q110.12 15.57 109.26 16.46Q108.40 17.36 107.19 17.86Q105.97 18.36 104.52 18.36L104.52 18.36Q103.70 18.36 102.93 18.25Q102.15 18.13 101.46 17.95Q100.76 17.77 100.16 17.55Q99.56 17.33 99.11 17.13L99.11 17.13L99.11 1.37L97.03 1.37L97.03 0.48Q97.28 0.38 97.73 0.28Q98.18 0.19 98.71 0.13Q99.23 0.07 99.79 0.04Q100.35 0 100.80 0L100.80 0Q101.05 0 101.24 0.01Q101.43 0.02 101.55 0.08Q101.68 0.14 101.75 0.26Q101.81 0.39 101.81 0.62L101.81 0.62Z" transform="translate(0, 46.648)"></path></svg>